<svg width="80" height="60" viewBox="0 0 80 60" fill="none" xmlns="http://www.w3.org/2000/svg">
<g filter="url(#filter0_d_3_2)">
<path d="M11.7907 23.3826L14.4447 22.0738L18.6397 15.7919L19.9239 15.2685L21.2937 21.6376L19.4958 21.8993L18.126 19.2819L17.0987 23.3826H21.6361L26.3448 24.604L28.2283 23.3826L31.396 26.698L32.7658 20.5906L34.9917 22.8591L36.3615 20.9396L38.5874 20.3289L41.8407 17.2752L42.3543 15.7919L45.0083 16.2282L46.1213 17.7114L44.1522 21.8993L49.0321 19.3691V18.1476L50.9156 17.7114L52.9703 19.8054L55.025 17.2752V15.5302L58.3639 13.1745L59.7337 11.1678H61.874L65.6409 3.40268L68.8942 0L70.0927 1.91946L68.2093 4.36242L68.8942 5.93289L70.692 6.28188L72.1474 12.7383V18.1476L74.7158 21.7248L76 26.698L71.5482 23.8188L69.5791 15.5302L68.3805 15.7919L68.2093 21.3758L64.956 26.698L64.0143 34.8121L66.2402 35.3356L67.1819 34.2013L69.3222 36.6443L70.9489 43.9732L70.7776 48.6846H68.723L67.9524 42.0537L66.497 44.0604L63.3294 43.3624L60.761 41.1812L57.8502 42.2282L58.0214 46.9396L55.7099 47.5503L52.2854 50.1678L48.176 49.6443L46.5494 48.6846L43.981 49.1208L44.8371 50.1678L42.7824 51.3893L41.1558 50.604L38.0737 52L33.365 49.6443L31.5672 45.4564L30.0262 45.6309L28.2283 44.1477L28.1427 43.0134L22.4067 42.4027L21.4649 45.5436L17.8692 43.8859L16.0713 40.8322H12.2188L11.7907 45.7181L9.5648 46.4161L8.45184 50.8658L7.59572 50.0805L4 40.745L8.28062 38.651L7.59572 34.5503L6.91082 30.3624L8.79429 27.6577L8.19501 26L10.7634 23.2081L11.7907 23.3826ZM68.723 33.6779L72.6611 39.6107L73.9453 39.0872L72.3187 36.6443L68.723 32.8054V33.6779ZM28.4851 21.6376V19.8926L31.4816 17.7114L34.0499 16.4027H31.0535L28.3995 17.9732L26.7729 19.4564V21.6376H28.4851Z" fill="white"/>
</g>
<defs>
<filter id="filter0_d_3_2" x="0" y="0" width="80" height="60" filterUnits="userSpaceOnUse" color-interpolation-filters="sRGB">
<feFlood flood-opacity="0" result="BackgroundImageFix"/>
<feColorMatrix in="SourceAlpha" type="matrix" values="0 0 0 0 0 0 0 0 0 0 0 0 0 0 0 0 0 0 127 0" result="hardAlpha"/>
<feOffset dy="4"/>
<feGaussianBlur stdDeviation="2"/>
<feComposite in2="hardAlpha" operator="out"/>
<feColorMatrix type="matrix" values="0 0 0 0 0 0 0 0 0 0 0 0 0 0 0 0 0 0 0.25 0"/>
<feBlend mode="normal" in2="BackgroundImageFix" result="effect1_dropShadow_3_2"/>
<feBlend mode="normal" in="SourceGraphic" in2="effect1_dropShadow_3_2" result="shape"/>
</filter>
</defs>
</svg>
